<svg version="1.1" id="Layer_1" xmlns="http://www.w3.org/2000/svg" xmlns:xlink="http://www.w3.org/1999/xlink" x="0px" y="0px"
	 width="100%" viewBox="0 0 500 500" enable-background="new 0 0 500 500" xml:space="preserve">
<path fill="transparent" opacity="1.000000" stroke="none" 
	d="
M1.000000,182.000000 
	C1.000000,121.348358 1.000000,61.196712 1.000000,1.022534 
	C167.610016,1.022534 334.220062,1.022534 500.915039,1.022534 
	C500.915039,167.568375 500.915039,334.136810 500.915039,500.852631 
	C334.333435,500.852631 167.666733,500.852631 1.000000,500.852631 
	C1.000000,394.779816 1.000000,288.639893 1.000000,182.000000 
M341.060760,210.293350 
	C342.042419,208.973373 343.024078,207.653381 344.005768,206.333420 
	C342.377350,205.564041 340.812225,204.384628 339.105713,204.121338 
	C336.543945,203.726105 333.823425,203.634796 331.287933,204.081436 
	C329.897705,204.326355 328.748505,205.939789 326.742310,206.974182 
	C324.371704,209.060913 322.001099,211.147644 318.887604,213.093658 
	C312.384125,212.316116 306.074463,212.637589 300.117096,214.956711 
	C300.189514,215.708069 300.261963,216.459412 300.334381,217.210770 
	C305.788971,217.210770 311.243530,217.210770 316.698120,217.210770 
	C312.010681,219.781097 307.313416,221.188080 302.600250,222.539597 
	C299.005188,223.570480 295.221680,224.603302 296.841370,229.611679 
	C298.148621,233.653915 301.768982,234.411194 306.473785,232.321747 
	C310.229645,230.653717 314.128510,229.307602 317.978851,228.655914 
	C317.762634,231.878143 317.734436,235.126968 317.283478,238.316010 
	C316.697144,242.462036 315.699463,246.548035 315.013702,250.682266 
	C313.798615,258.007812 313.530609,265.612640 311.352020,272.630524 
	C306.909821,286.940399 301.942535,301.140137 296.140869,314.943634 
	C294.343628,319.219696 292.567566,325.596558 285.579803,325.632599 
	C276.255798,325.680664 266.931427,325.660400 257.607544,325.721619 
	C252.755142,325.753448 247.903473,325.897186 242.715271,325.338776 
	C236.300797,323.679474 234.178940,321.858490 235.163025,315.321747 
	C236.354507,307.407196 238.786438,299.626923 241.256332,291.974030 
	C243.217911,285.896057 246.044220,280.097137 248.789368,273.463196 
	C249.193573,269.878052 249.597778,266.292877 250.068298,262.119629 
	C226.655212,256.682739 202.986008,256.780243 179.752716,254.047043 
	C178.903564,250.874710 180.695053,246.286942 174.959732,245.949005 
	C174.959732,233.146301 174.959732,220.343613 174.959732,207.981171 
	C165.229843,207.981171 156.174988,207.975418 147.120148,207.982666 
	C136.876038,207.990860 126.630867,207.946396 116.389328,208.116028 
	C115.251518,208.134872 113.298523,209.260925 113.153389,210.116104 
	C112.547394,213.687103 112.332138,217.347580 112.258316,220.981049 
	C112.082733,229.623428 112.068741,238.269073 111.314285,247.366379 
	C110.165123,254.053940 113.414932,257.871979 120.634521,257.929565 
	C133.091858,258.028961 145.550568,257.957092 157.900620,257.957092 
	C158.345245,260.784332 158.753510,263.380432 158.698975,266.533691 
	C157.370422,267.180603 156.064667,267.880249 154.709717,268.466095 
	C144.316620,272.959900 136.802063,280.645874 129.999146,289.899780 
	C124.613312,290.290894 119.453949,294.163971 118.306122,298.928131 
	C117.157120,303.697205 118.111961,307.717834 123.057732,310.839020 
	C122.597191,311.887970 122.310997,313.713287 121.648300,313.862122 
	C116.676437,314.978699 119.705498,318.758179 119.294472,321.227020 
	C119.219109,321.679749 122.230156,323.122375 123.905243,323.308075 
	C131.203674,324.117218 138.534851,324.630951 145.092270,325.187317 
	C145.288269,329.490295 146.512527,333.798096 145.462372,337.452332 
	C142.012054,349.458344 148.493576,357.750397 155.482635,365.532684 
	C161.750549,372.511963 170.507309,374.920380 179.129639,375.730103 
	C154.563705,375.730103 129.997787,375.730103 105.036263,375.730103 
	C105.036263,379.452881 105.036263,382.244568 104.899689,385.960449 
	C104.946541,401.625946 104.993385,417.291473 104.944717,433.867889 
	C104.944717,436.315521 104.944717,438.763184 104.944717,441.853058 
	C107.626984,441.853058 109.740997,441.853027 111.855019,441.853027 
	C204.084610,441.853027 296.314209,441.853027 388.543793,441.852997 
	C397.330505,441.852997 397.330505,441.852936 397.167542,432.067383 
	C397.112976,416.376923 397.058380,400.686493 397.093903,384.086578 
	C397.093903,381.526642 397.093903,378.966675 397.093903,376.005554 
	C384.257355,376.005554 372.231293,376.040955 360.205933,375.965607 
	C358.494324,375.954865 356.786041,375.406982 355.958588,375.000275 
	C358.611206,374.887421 361.518066,375.443115 363.872986,374.547516 
	C374.872223,370.364319 388.070312,359.265289 389.060944,343.768311 
	C389.642578,334.670319 388.796265,326.479065 382.908722,319.377899 
	C389.865662,318.345795 392.366943,315.227631 390.879822,308.679901 
	C390.357849,306.381561 389.022522,304.053101 387.473450,302.237610 
	C377.143250,290.130859 364.501129,283.136658 348.005554,284.261597 
	C347.598602,282.339447 347.376373,280.355316 346.755188,278.505096 
	C342.222443,265.004974 337.609558,251.531784 333.753723,237.964539 
	C338.244080,239.520844 341.295105,237.719330 342.750732,233.538071 
	C343.822266,230.460144 345.089539,227.020248 344.675262,223.957260 
	C344.072357,219.499405 342.035461,215.235519 341.060760,210.293350 
M396.296417,133.202454 
	C392.479950,128.431717 388.742828,123.593864 384.798248,118.931557 
	C383.630402,117.551247 381.877838,116.665680 380.528564,115.654808 
	C380.528564,137.700348 380.528564,158.859039 380.528564,180.017731 
	C381.328033,180.146606 382.127502,180.275497 382.926971,180.404373 
	C383.450256,178.572205 384.451538,176.732239 384.421722,174.909103 
	C384.166229,159.276840 383.719147,143.647766 383.358643,128.017044 
	C383.345764,127.458885 383.638184,126.893692 383.853027,126.089455 
	C391.265747,134.047409 398.481598,141.565079 405.376282,149.366577 
	C406.978088,151.179031 408.138336,153.894806 408.373230,156.304932 
	C409.048798,163.236267 409.079468,170.228378 409.545837,177.184402 
	C409.614532,178.208389 410.673767,179.165955 411.274719,180.154251 
	C412.084259,179.276978 413.348206,178.511505 413.597931,177.496506 
	C413.981873,175.935989 413.726837,174.201141 413.641785,172.545471 
	C413.351807,166.899170 412.883881,161.258850 412.727905,155.609497 
	C412.397217,143.632004 412.273590,131.648590 411.895264,119.672951 
	C411.858795,118.518166 410.633087,117.400940 409.959442,116.266281 
	C409.294342,117.408760 408.053497,118.553970 408.058929,119.693268 
	C408.090485,126.346741 408.425476,132.998474 408.631226,139.651627 
	C408.683746,141.349792 408.639069,143.050980 408.639069,144.750778 
	C408.174988,144.934692 407.710907,145.118622 407.246826,145.302536 
	C403.755798,141.442368 400.264801,137.582214 396.296417,133.202454 
M313.839264,180.356644 
	C322.854828,179.000671 325.749634,175.864090 325.971588,167.003845 
	C326.153503,159.740662 325.448608,152.708191 319.801147,147.352631 
	C324.848175,141.252106 326.552460,134.332657 324.850098,126.719421 
	C323.694916,121.553207 320.579376,117.943336 315.295654,117.069763 
	C311.233154,116.398094 307.028442,116.628532 302.897614,116.316322 
	C298.909515,116.014885 297.257874,117.505707 297.305908,121.718735 
	C297.472931,136.365051 297.313110,151.014832 297.343445,165.663162 
	C297.351013,169.319809 297.336182,173.017548 297.890442,176.610184 
	C298.089386,177.899658 299.820648,179.765671 301.048615,179.933365 
	C304.979645,180.470261 309.002472,180.335068 313.839264,180.356644 
M272.237793,117.929596 
	C267.450745,117.530510 262.654816,117.214615 257.879730,116.703926 
	C254.535004,116.346230 253.533371,117.739021 253.601166,120.967537 
	C253.817566,131.275146 253.758926,141.588181 253.888611,151.898102 
	C253.991104,160.046417 254.128601,168.196869 254.472198,176.337006 
	C254.527176,177.639969 255.745331,178.893845 256.425751,180.170410 
	C257.202393,178.800491 258.163727,177.496521 258.685364,176.035568 
	C258.991486,175.178299 258.532990,174.071350 258.529358,173.076309 
	C258.507874,167.154572 258.518738,161.232697 258.518738,155.374466 
	C265.079132,153.838409 269.674316,155.560944 272.150848,162.575729 
	C273.959656,167.699112 276.859161,172.457108 279.495148,177.255676 
	C280.197174,178.533676 281.718323,179.361710 282.863403,180.396317 
	C283.444427,179.917984 284.025452,179.439651 284.606476,178.961319 
	C280.587280,170.907364 276.568085,162.853424 273.320099,156.344849 
	C276.032715,152.084427 279.330444,149.064835 279.839722,145.631607 
	C280.749878,139.495804 280.722870,132.974197 279.607574,126.885002 
	C279.016907,123.660294 275.312286,121.005943 272.237793,117.929596 
M47.023224,86.199692 
	C47.704098,84.787567 48.627041,83.439857 49.022953,81.951912 
	C50.544975,76.231743 51.898167,70.466644 53.314323,64.718300 
	C53.568119,64.773552 53.821915,64.828812 54.075714,64.884064 
	C54.633583,74.147263 55.191456,83.410469 55.756729,92.796524 
	C57.458141,92.796524 58.709236,92.796524 60.405014,92.796524 
	C59.691036,80.181694 58.991589,67.823624 58.308762,55.759129 
	C52.956303,54.147472 50.938477,55.902882 50.184677,60.548248 
	C49.185028,66.708763 47.518936,72.761139 46.139229,78.859985 
	C45.863331,78.817703 45.587429,78.775429 45.311531,78.733147 
	C43.443192,71.026390 41.574852,63.319626 39.695839,55.568851 
	C37.339169,55.568851 35.276173,55.568851 33.006542,55.568851 
	C32.642830,62.053825 32.303497,68.202858 31.951565,74.351173 
	C31.601759,80.462334 31.239288,86.572754 30.890072,92.551605 
	C34.374104,93.704926 35.631989,92.704659 35.728973,89.533096 
	C35.974346,81.509071 36.429356,73.491455 36.800388,65.471275 
	C39.239758,71.114868 40.729801,76.850525 42.168488,82.599030 
	C42.717949,84.794487 43.266525,86.888077 47.023224,86.199692 
M239.065750,125.665115 
	C238.711166,122.754204 240.414795,119.203331 235.239151,116.653000 
	C235.239151,119.845245 235.242813,122.335129 235.238525,124.824997 
	C235.213913,139.137619 235.489044,153.460098 235.022003,167.758301 
	C234.818069,174.001495 231.263138,176.834915 225.513504,177.383331 
	C220.169968,177.893005 215.673981,175.295700 213.977951,169.956161 
	C212.839737,166.372696 212.136322,162.507324 212.070297,158.753433 
	C211.850494,146.259659 212.074356,133.758453 211.924011,121.262573 
	C211.907043,119.851707 210.591415,118.456474 209.877975,117.053993 
	C209.250290,118.417763 208.088272,119.777428 208.077759,121.145935 
	C207.975449,134.475372 208.018356,147.806732 208.143631,161.136383 
	C208.166916,163.614334 208.561722,166.126846 209.095932,168.555023 
	C210.896912,176.741333 218.345642,182.242355 226.714157,181.720596 
	C234.555710,181.231689 238.721375,176.909851 239.034698,167.077347 
	C239.464035,153.604599 239.074478,140.105743 239.065750,125.665115 
M359.080566,132.329132 
	C357.231598,126.630798 356.580231,120.359962 351.049957,115.141777 
	C349.797180,117.948814 348.531830,119.882210 348.055084,121.993660 
	C343.888489,140.447632 339.835358,158.927551 335.871368,177.426102 
	C335.659027,178.416977 336.548828,179.644028 336.925568,180.761108 
	C337.878204,179.867935 339.401184,179.124008 339.681000,178.054764 
	C340.688049,174.206741 341.240448,170.241852 342.028442,166.333984 
	C344.337067,154.885361 344.346222,155.004135 356.132050,155.297470 
	C359.059814,155.370316 360.181030,156.459625 360.846924,159.113373 
	C362.340912,165.067596 364.041718,170.973206 365.813843,176.851746 
	C366.186493,178.087997 367.227386,179.122833 367.960358,180.250488 
	C368.376007,180.045547 368.791656,179.840607 369.207336,179.635666 
	C365.889038,164.135010 362.570770,148.634338 359.080566,132.329132 
M444.555756,120.089523 
	C443.350677,118.825142 442.145599,117.560753 440.940521,116.296364 
	C439.962616,117.706970 438.762756,119.016479 438.062561,120.553581 
	C437.173157,122.505928 436.513458,124.604805 436.057861,126.706215 
	C432.396515,143.593643 428.775330,160.490067 425.274567,177.411194 
	C425.070557,178.397232 426.018341,179.621536 426.430084,180.734970 
	C427.342041,179.840652 428.786957,179.088913 429.071075,178.026672 
	C430.143219,174.018311 430.784912,169.897247 431.684357,165.839798 
	C434.084290,155.013565 434.104248,155.018066 445.206879,155.375656 
	C445.539856,155.386398 445.982452,155.256775 446.188202,155.422791 
	C447.524170,156.500931 449.518250,157.405685 449.986206,158.805389 
	C451.933441,164.629761 453.360870,170.625870 455.110352,176.520004 
	C455.510834,177.869415 456.433563,179.063843 457.115936,180.329590 
	C457.612732,180.185211 458.109528,180.040817 458.606323,179.896439 
	C458.538055,178.741364 458.634247,177.547516 458.372620,176.438034 
	C457.304443,171.908539 456.087494,167.414337 454.996948,162.889877 
	C451.612976,148.851120 448.261749,134.804489 444.555756,120.089523 
M121.198151,55.995785 
	C116.312973,55.679287 111.427795,55.362789 106.457626,55.040783 
	C106.457626,68.210854 106.457626,80.440117 106.457626,92.953918 
	C110.738152,92.953918 114.717285,93.145866 118.670868,92.909805 
	C124.907356,92.537460 129.024078,89.568855 130.150955,85.030693 
	C131.415436,79.938354 129.859863,76.863327 124.054977,72.980240 
	C131.341400,66.219666 130.607574,60.256943 121.198151,55.995785 
M267.472290,57.822144 
	C261.638092,54.694225 255.429733,55.133987 249.076447,55.387638 
	C249.076447,68.122543 249.076447,80.339386 249.076447,92.520309 
	C261.889648,94.364998 269.252014,91.778885 272.646271,84.359093 
	C276.544861,75.836853 274.474579,63.837814 267.472290,57.822144 
M92.624046,61.019188 
	C89.495621,55.758949 84.708199,54.046997 78.954201,55.057289 
	C73.379097,56.036171 69.826653,60.006035 69.196342,65.162018 
	C68.426102,71.462662 68.363747,78.090584 69.475777,84.312355 
	C70.570786,90.438881 75.765976,93.653870 81.474823,93.725761 
	C87.150520,93.797241 91.848961,90.549522 93.829964,84.584755 
	C96.378822,76.910202 96.309334,69.207634 92.624046,61.019188 
M281.518280,91.728149 
	C283.796021,94.191116 285.439758,93.682922 286.606445,90.676445 
	C287.491577,88.395500 288.048157,84.498878 289.422638,84.175415 
	C293.524597,83.210083 298.022949,83.197449 302.221802,83.807854 
	C303.534088,83.998627 304.784943,87.239113 305.359924,89.281738 
	C306.309082,92.653740 307.814148,94.036148 311.483551,92.313004 
	C307.804199,80.969971 304.260101,69.728058 300.415894,58.589710 
	C299.932281,57.188534 298.032623,55.850895 296.501251,55.330048 
	C293.787720,54.407116 292.845551,56.493660 292.134277,58.738655 
	C288.723419,69.504341 285.237305,80.246185 281.518280,91.728149 
M142.598450,55.876457 
	C142.292679,62.716171 148.697968,56.762714 150.434464,60.564182 
	C150.434464,69.484741 150.434464,79.040276 150.434464,88.551964 
	C142.653778,89.709518 142.653778,89.709518 142.745132,92.819397 
	C149.654755,92.819397 156.571609,92.819397 163.482147,92.819397 
	C163.613678,89.689880 163.613678,89.689880 156.070129,88.539032 
	C156.070129,78.883469 156.070129,69.207336 156.070129,59.370838 
	C158.846634,59.205421 161.271332,59.060966 163.696014,58.916512 
	C163.926804,58.424866 164.157578,57.933220 164.388351,57.441574 
	C163.167175,56.696861 161.964401,55.348392 160.721680,55.310509 
	C154.917404,55.133568 149.102112,55.318233 142.598450,55.876457 
M214.065201,58.490108 
	C216.613525,58.848068 219.161865,59.206032 221.760406,59.571049 
	C221.760406,69.437614 221.760406,79.146439 221.760406,88.823494 
	C214.317352,89.370865 214.317352,89.370865 214.287750,92.785599 
	C221.195938,92.785599 228.101608,92.785599 235.008957,92.785599 
	C234.978638,89.733589 234.978638,89.733589 227.372086,88.570053 
	C227.372086,78.872269 227.372086,69.159981 227.372086,59.313179 
	C230.116928,59.184746 232.552185,59.070801 234.987427,58.956856 
	C235.281815,58.538975 235.576187,58.121094 235.870560,57.703213 
	C234.828522,56.879341 233.815567,55.390545 232.739532,55.343456 
	C227.261307,55.103706 221.763168,55.141251 216.281754,55.344326 
	C215.471130,55.374352 214.712372,56.804390 214.065201,58.490108 
M184.801224,58.893417 
	C185.178940,55.192039 183.290588,54.745403 180.308075,55.586124 
	C180.308075,68.155205 180.308075,80.507370 180.308075,93.025391 
	C186.512573,93.025391 192.335678,93.183388 198.138428,92.909721 
	C199.518143,92.844643 200.829742,91.334930 202.172684,90.489700 
	C201.916229,89.911026 201.659775,89.332344 201.403320,88.753670 
	C196.000061,88.753670 190.596817,88.753670 184.801727,88.753670 
	C184.801727,78.730835 184.801727,69.271820 184.801224,58.893417 
z"/>
<path fill="#464A51" opacity="1.000000" stroke="none" 
	d="
M397.003784,384.996033 
	C397.058380,400.686493 397.112976,416.376923 396.611023,432.539001 
	C299.049744,432.992737 202.044998,432.974854 105.040237,432.956970 
	C104.993385,417.291473 104.946541,401.625946 105.433548,385.472382 
	C202.979538,384.988220 299.991669,384.992126 397.003784,384.996033 
M213.504074,413.004974 
	C218.308731,413.001129 223.154495,413.353455 227.896393,412.806122 
	C229.626465,412.606384 231.109543,410.266937 232.705338,408.903717 
	C231.142746,407.559967 229.626816,405.123077 228.009796,405.054047 
	C219.079422,404.672821 210.116592,404.675476 201.184601,405.035675 
	C199.463547,405.105072 197.830276,407.351471 196.156494,408.593597 
	C197.796600,410.060974 199.267212,412.463989 201.112549,412.798248 
	C204.802612,413.466675 208.697968,413.001862 213.504074,413.004974 
M273.279297,412.930634 
	C282.228485,412.954834 291.177734,412.962830 300.126770,413.012512 
	C303.052673,413.028748 305.745667,412.359161 305.816528,408.951050 
	C305.888947,405.470184 303.206268,404.834137 300.262726,404.847748 
	C291.810181,404.886871 283.352112,404.704712 274.908905,404.988098 
	C273.143799,405.047363 271.433167,406.730194 269.697449,407.664886 
	C270.619537,409.356262 271.541626,411.047668 273.279297,412.930634 
M378.863251,410.190063 
	C379.551422,406.062042 377.252502,404.857056 373.677979,404.860565 
	C365.364288,404.868683 357.050568,404.867615 348.736877,404.855530 
	C345.964691,404.851501 343.022064,404.865204 342.925720,408.607849 
	C342.826172,412.474243 345.654114,413.021790 348.758026,413.012238 
	C356.905365,412.987152 365.056030,413.123779 373.197815,412.909180 
	C374.978271,412.862274 376.727264,411.621307 378.863251,410.190063 
M141.497803,413.004974 
	C145.645920,413.003601 149.854874,413.415985 153.915421,412.819000 
	C155.824814,412.538269 158.541824,410.592255 158.966156,408.913788 
	C159.759857,405.774261 157.041275,404.855011 154.224869,404.858917 
	C145.596786,404.870880 136.958542,404.643311 128.348724,405.040039 
	C126.519409,405.124329 123.551537,407.237457 123.275963,408.798492 
	C122.682396,412.160919 125.604774,413.013519 128.556076,413.004761 
	C132.538223,412.992920 136.520462,413.003845 141.497803,413.004974 
z"/>
<path fill="#32353F" opacity="1.000000" stroke="none" 
	d="
M179.773285,375.266968 
	C170.507309,374.920380 161.750549,372.511963 155.482635,365.532684 
	C148.493576,357.750397 142.012054,349.458344 145.462372,337.452332 
	C146.512527,333.798096 145.288269,329.490295 145.092270,325.187317 
	C138.534851,324.630951 131.203674,324.117218 123.905243,323.308075 
	C122.230156,323.122375 119.219109,321.679749 119.294472,321.227020 
	C119.705498,318.758179 116.676437,314.978699 121.648300,313.862122 
	C122.310997,313.713287 122.597191,311.887970 123.497696,310.435486 
	C129.733276,309.931732 135.529343,309.851654 141.324387,309.724792 
	C145.857788,309.625580 147.709091,306.746490 148.193649,302.728516 
	C148.430435,300.765259 148.417816,298.742279 148.259201,296.767120 
	C147.916718,292.502350 145.517517,290.070435 141.227768,289.897583 
	C137.749115,289.757477 134.257294,289.944763 130.771301,289.986816 
	C136.802063,280.645874 144.316620,272.959900 154.709717,268.466095 
	C156.064667,267.880249 157.370422,267.180603 159.369446,266.255737 
	C164.661118,266.320831 169.282898,266.656372 173.903397,267.008514 
	C183.145920,267.712860 192.404053,268.261322 201.626205,269.172913 
	C217.258392,270.718140 232.867676,272.494904 248.486588,274.174316 
	C246.044220,280.097137 243.217911,285.896057 241.256332,291.974030 
	C238.786438,299.626923 236.354507,307.407196 235.163025,315.321747 
	C234.178940,321.858490 236.300797,323.679474 242.670563,325.932434 
	C240.328705,329.784302 238.031540,333.042542 235.417023,336.750916 
	C257.164062,336.750916 278.013611,336.750916 298.852936,336.750916 
	C299.116882,320.824860 305.858459,308.102631 316.791199,299.410095 
	C326.046814,292.051056 336.548981,287.554138 348.017883,285.095520 
	C364.501129,283.136658 377.143250,290.130859 387.473450,302.237610 
	C389.022522,304.053101 390.357849,306.381561 390.879822,308.679901 
	C392.366943,315.227631 389.865662,318.345795 382.225891,319.372681 
	C377.942108,318.893524 374.266968,318.729980 370.753632,317.889771 
	C358.282745,314.907318 346.673859,316.134705 336.761169,324.874146 
	C331.180450,329.794312 326.094177,335.272552 320.715973,340.427185 
	C319.336914,341.748932 317.695312,342.796814 315.729706,343.899963 
	C313.240753,344.031189 310.293213,343.455200 309.322998,344.581909 
	C306.519501,347.837708 303.104767,348.116394 299.416656,348.111755 
	C276.316772,348.082611 253.216461,347.943451 230.117477,348.065918 
	C226.409729,348.085602 225.587006,346.550659 225.563217,343.385437 
	C225.548004,341.365784 225.700317,338.833557 224.611755,337.445160 
	C222.658386,334.953705 219.827011,333.150604 217.038147,330.784637 
	C221.911774,355.256714 202.444458,376.930603 182.851181,375.145264 
	C181.636642,375.171722 180.704956,375.219360 179.773285,375.266968 
M189.569061,331.897705 
	C188.792191,331.277252 188.056381,330.595032 187.231613,330.046570 
	C182.693268,327.028778 176.864105,327.251526 172.885986,330.557770 
	C168.629089,334.095703 167.081238,339.861298 169.027847,344.928833 
	C170.936874,349.898499 175.782654,352.980255 181.028214,352.916290 
	C185.895859,352.856873 189.609924,350.334473 191.470047,346.458740 
	C193.648438,341.919861 193.531891,336.832336 189.569061,331.897705 
z"/>
<path fill="#D8D8D8" opacity="1.000000" stroke="none" 
	d="
M348.011719,284.678558 
	C336.548981,287.554138 326.046814,292.051056 316.791199,299.410095 
	C305.858459,308.102631 299.116882,320.824860 298.852936,336.750916 
	C278.013611,336.750916 257.164062,336.750916 235.417023,336.750916 
	C238.031540,333.042542 240.328705,329.784302 242.838669,326.258240 
	C247.903473,325.897186 252.755142,325.753448 257.607544,325.721619 
	C266.931427,325.660400 276.255798,325.680664 285.579803,325.632599 
	C292.567566,325.596558 294.343628,319.219696 296.140869,314.943634 
	C301.942535,301.140137 306.909821,286.940399 311.352020,272.630524 
	C313.530609,265.612640 313.798615,258.007812 315.013702,250.682266 
	C315.699463,246.548035 316.697144,242.462036 317.283478,238.316010 
	C317.734436,235.126968 317.762634,231.878143 318.174957,227.953613 
	C325.087616,224.109467 325.834595,220.898956 321.194824,215.082184 
	C320.691803,214.451569 320.152832,213.849640 319.630524,213.234375 
	C322.001099,211.147644 324.371704,209.060913 327.329834,207.287415 
	C327.950562,210.080170 327.983765,212.559708 327.983551,215.498962 
	C327.011780,223.926056 329.129181,231.191879 333.021973,238.050095 
	C337.609558,251.531784 342.222443,265.004974 346.755188,278.505096 
	C347.376373,280.355316 347.598602,282.339447 348.011719,284.678558 
z"/>
<path fill="#252122" opacity="1.000000" stroke="none" 
	d="
M316.174316,343.970520 
	C317.695312,342.796814 319.336914,341.748932 320.715973,340.427185 
	C326.094177,335.272552 331.180450,329.794312 336.761169,324.874146 
	C346.673859,316.134705 358.282745,314.907318 370.753632,317.889771 
	C374.266968,318.729980 377.942108,318.893524 381.845917,319.529266 
	C388.796265,326.479065 389.642578,334.670319 389.060944,343.768311 
	C388.070312,359.265289 374.872223,370.364319 363.872986,374.547516 
	C361.518066,375.443115 358.611206,374.887421 355.101837,375.015747 
	C353.139130,375.055176 352.033142,375.079132 350.508179,375.040100 
	C349.094086,374.917114 348.097809,374.872253 347.104034,374.794952 
	C329.967773,373.462677 317.375885,357.301208 316.174316,343.970520 
M362.646149,347.778412 
	C365.960541,340.161804 364.338867,334.499817 360.407959,330.985107 
	C356.261139,327.277283 350.060425,326.788818 345.637299,329.695679 
	C341.134583,332.654907 339.539032,337.046844 339.984253,342.124176 
	C340.454651,347.488281 343.931976,351.100983 348.733490,352.543335 
	C353.743591,354.048340 358.582153,352.771332 362.646149,347.778412 
z"/>
<path fill="#A4A4A4" opacity="1.000000" stroke="none" 
	d="
M350.927185,375.103088 
	C352.033142,375.079132 353.139130,375.055176 354.660645,375.069489 
	C356.786041,375.406982 358.494324,375.954865 360.205933,375.965607 
	C372.231293,376.040955 384.257355,376.005554 397.093903,376.005554 
	C397.093903,378.966675 397.093903,381.526642 397.048828,384.541321 
	C299.991669,384.992126 202.979538,384.988220 105.501831,385.010254 
	C105.036263,382.244568 105.036263,379.452881 105.036263,375.730103 
	C129.997787,375.730103 154.563705,375.730103 179.451462,375.498535 
	C180.704956,375.219360 181.636642,375.171722 183.128845,375.444916 
	C184.346054,375.845184 185.002701,375.994049 185.659378,375.994202 
	C239.526184,376.005890 293.393005,376.012024 347.259766,375.969330 
	C348.482483,375.968384 349.704742,375.404419 350.927185,375.103088 
z"/>
<path fill="#A9A9A8" opacity="1.000000" stroke="none" 
	d="
M104.992477,433.412415 
	C202.044998,432.974854 299.049744,432.992737 396.522400,432.999878 
	C397.330505,441.852936 397.330505,441.852997 388.543793,441.852997 
	C296.314209,441.853027 204.084610,441.853027 111.855019,441.853027 
	C109.740997,441.853027 107.626984,441.853058 104.944717,441.853058 
	C104.944717,438.763184 104.944717,436.315521 104.992477,433.412415 
z"/>
<path fill="#C1B19D" opacity="1.000000" stroke="none" 
	d="
M111.989456,246.913406 
	C112.068741,238.269073 112.082733,229.623428 112.258316,220.981049 
	C112.332138,217.347580 112.547394,213.687103 113.153389,210.116104 
	C113.298523,209.260925 115.251518,208.134872 116.389328,208.116028 
	C126.630867,207.946396 136.876038,207.990860 147.120148,207.982666 
	C156.174988,207.975418 165.229843,207.981171 174.959732,207.981171 
	C174.959732,220.343613 174.959732,233.146301 174.531342,246.470398 
	C153.398453,246.965652 132.693954,246.939529 111.989456,246.913406 
M126.183586,225.002106 
	C129.900177,225.002106 133.616760,225.002106 137.542618,225.002106 
	C137.542618,220.733978 137.542618,217.052353 137.542618,213.004471 
	C131.765366,213.004471 126.460159,212.939499 121.159378,213.063217 
	C120.182938,213.085999 118.406120,213.843704 118.389427,214.311768 
	C118.275536,217.505112 117.990883,220.893539 118.969681,223.814072 
	C119.306107,224.817917 123.097763,224.663788 126.183586,225.002106 
z"/>
<path fill="#252122" opacity="1.000000" stroke="none" 
	d="
M111.651871,247.139893 
	C132.693954,246.939529 153.398453,246.965652 174.568741,246.927826 
	C180.695053,246.286942 178.903564,250.874710 179.752716,254.047043 
	C202.986008,256.780243 226.655212,256.682739 250.068298,262.119629 
	C249.597778,266.292877 249.193573,269.878052 248.637970,273.818756 
	C232.867676,272.494904 217.258392,270.718140 201.626205,269.172913 
	C192.404053,268.261322 183.145920,267.712860 173.903397,267.008514 
	C169.282898,266.656372 164.661118,266.320831 159.600861,265.977173 
	C158.753510,263.380432 158.345245,260.784332 157.900620,257.957092 
	C145.550568,257.957092 133.091858,258.028961 120.634521,257.929565 
	C113.414932,257.871979 110.165123,254.053940 111.651871,247.139893 
z"/>
<path fill="white" opacity="1.000000" stroke="none" 
	d="
M396.535095,133.462250 
	C400.264801,137.582214 403.755798,141.442368 407.246826,145.302536 
	C407.710907,145.118622 408.174988,144.934692 408.639069,144.750778 
	C408.639069,143.050980 408.683746,141.349792 408.631226,139.651627 
	C408.425476,132.998474 408.090485,126.346741 408.058929,119.693268 
	C408.053497,118.553970 409.294342,117.408760 409.959442,116.266281 
	C410.633087,117.400940 411.858795,118.518166 411.895264,119.672951 
	C412.273590,131.648590 412.397217,143.632004 412.727905,155.609497 
	C412.883881,161.258850 413.351807,166.899170 413.641785,172.545471 
	C413.726837,174.201141 413.981873,175.935989 413.597931,177.496506 
	C413.348206,178.511505 412.084259,179.276978 411.274719,180.154251 
	C410.673767,179.165955 409.614532,178.208389 409.545837,177.184402 
	C409.079468,170.228378 409.048798,163.236267 408.373230,156.304932 
	C408.138336,153.894806 406.978088,151.179031 405.376282,149.366577 
	C398.481598,141.565079 391.265747,134.047409 383.853027,126.089455 
	C383.638184,126.893692 383.345764,127.458885 383.358643,128.017044 
	C383.719147,143.647766 384.166229,159.276840 384.421722,174.909103 
	C384.451538,176.732239 383.450256,178.572205 382.926971,180.404373 
	C382.127502,180.275497 381.328033,180.146606 380.528564,180.017731 
	C380.528564,158.859039 380.528564,137.700348 380.528564,115.654808 
	C381.877838,116.665680 383.630402,117.551247 384.798248,118.931557 
	C388.742828,123.593864 392.479950,128.431717 396.535095,133.462250 
M408.707977,145.524658 
	C408.517670,145.438461 408.327362,145.352264 408.137054,145.266068 
	C408.184509,145.478668 408.231934,145.691284 408.707977,145.524658 
z"/>
<path fill="white" opacity="1.000000" stroke="none" 
	d="
M313.414551,180.407959 
	C309.002472,180.335068 304.979645,180.470261 301.048615,179.933365 
	C299.820648,179.765671 298.089386,177.899658 297.890442,176.610184 
	C297.336182,173.017548 297.351013,169.319809 297.343445,165.663162 
	C297.313110,151.014832 297.472931,136.365051 297.305908,121.718735 
	C297.257874,117.505707 298.909515,116.014885 302.897614,116.316322 
	C307.028442,116.628532 311.233154,116.398094 315.295654,117.069763 
	C320.579376,117.943336 323.694916,121.553207 324.850098,126.719421 
	C326.552460,134.332657 324.848175,141.252106 319.801147,147.352631 
	C325.448608,152.708191 326.153503,159.740662 325.971588,167.003845 
	C325.749634,175.864090 322.854828,179.000671 313.414551,180.407959 
M319.857635,152.892746 
	C316.104156,146.891571 310.087891,149.469467 304.892548,148.958572 
	C302.127106,148.686630 301.029297,149.996094 301.115326,152.755783 
	C301.254974,157.235474 301.148041,161.722198 301.213684,166.204956 
	C301.381378,177.653229 301.730988,177.907684 313.354980,176.932983 
	C318.162872,176.529831 321.474640,174.265442 321.492798,169.328644 
	C321.512024,164.099014 320.648682,158.866135 319.857635,152.892746 
M310.320618,145.147385 
	C316.550232,145.514511 319.518280,144.118652 320.500397,139.009964 
	C321.261841,135.049072 321.473541,130.619568 320.436798,126.803986 
	C319.749603,124.274673 316.759552,121.347450 314.206390,120.583504 
	C310.161469,119.373207 305.619232,119.825027 301.180725,119.567375 
	C301.180725,128.741821 301.180725,136.793167 301.180725,145.137573 
	C304.124969,145.137573 306.749329,145.137573 310.320618,145.147385 
z"/>
<path fill="white" opacity="1.000000" stroke="none" 
	d="
M272.625610,118.011856 
	C275.312286,121.005943 279.016907,123.660294 279.607574,126.885002 
	C280.722870,132.974197 280.749878,139.495804 279.839722,145.631607 
	C279.330444,149.064835 276.032715,152.084427 273.320099,156.344849 
	C276.568085,162.853424 280.587280,170.907364 284.606476,178.961319 
	C284.025452,179.439651 283.444427,179.917984 282.863403,180.396317 
	C281.718323,179.361710 280.197174,178.533676 279.495148,177.255676 
	C276.859161,172.457108 273.959656,167.699112 272.150848,162.575729 
	C269.674316,155.560944 265.079132,153.838409 258.518738,155.374466 
	C258.518738,161.232697 258.507874,167.154572 258.529358,173.076309 
	C258.532990,174.071350 258.991486,175.178299 258.685364,176.035568 
	C258.163727,177.496521 257.202393,178.800491 256.425751,180.170410 
	C255.745331,178.893845 254.527176,177.639969 254.472198,176.337006 
	C254.128601,168.196869 253.991104,160.046417 253.888611,151.898102 
	C253.758926,141.588181 253.817566,131.275146 253.601166,120.967537 
	C253.533371,117.739021 254.535004,116.346230 257.879730,116.703926 
	C262.654816,117.214615 267.450745,117.530510 272.625610,118.011856 
M257.353790,137.178223 
	C257.566071,141.761597 257.778351,146.344955 257.983917,150.783630 
	C273.748779,153.312378 277.234100,150.263596 276.895447,134.907562 
	C276.888092,134.574448 276.887299,134.241165 276.876862,133.908157 
	C276.534119,122.984390 270.274506,118.103615 259.651428,120.705109 
	C258.704529,120.937004 257.556549,122.655296 257.485748,123.747063 
	C257.216705,127.895340 257.351929,132.069839 257.353790,137.178223 
z"/>
<path fill="white" opacity="1.000000" stroke="none" 
	d="
M46.655014,86.223770 
	C43.266525,86.888077 42.717949,84.794487 42.168488,82.599030 
	C40.729801,76.850525 39.239758,71.114868 36.800388,65.471275 
	C36.429356,73.491455 35.974346,81.509071 35.728973,89.533096 
	C35.631989,92.704659 34.374104,93.704926 30.890072,92.551605 
	C31.239288,86.572754 31.601759,80.462334 31.951565,74.351173 
	C32.303497,68.202858 32.642830,62.053825 33.006542,55.568851 
	C35.276173,55.568851 37.339169,55.568851 39.695839,55.568851 
	C41.574852,63.319626 43.443192,71.026390 45.311531,78.733147 
	C45.587429,78.775429 45.863331,78.817703 46.139229,78.859985 
	C47.518936,72.761139 49.185028,66.708763 50.184677,60.548248 
	C50.938477,55.902882 52.956303,54.147472 58.308762,55.759129 
	C58.991589,67.823624 59.691036,80.181694 60.405014,92.796524 
	C58.709236,92.796524 57.458141,92.796524 55.756729,92.796524 
	C55.191456,83.410469 54.633583,74.147263 54.075714,64.884064 
	C53.821915,64.828812 53.568119,64.773552 53.314323,64.718300 
	C51.898167,70.466644 50.544975,76.231743 49.022953,81.951912 
	C48.627041,83.439857 47.704098,84.787567 46.655014,86.223770 
z"/>
<path fill="white" opacity="1.000000" stroke="none" 
	d="
M239.050812,126.141602 
	C239.074478,140.105743 239.464035,153.604599 239.034698,167.077347 
	C238.721375,176.909851 234.555710,181.231689 226.714157,181.720596 
	C218.345642,182.242355 210.896912,176.741333 209.095932,168.555023 
	C208.561722,166.126846 208.166916,163.614334 208.143631,161.136383 
	C208.018356,147.806732 207.975449,134.475372 208.077759,121.145935 
	C208.088272,119.777428 209.250290,118.417763 209.877975,117.053993 
	C210.591415,118.456474 211.907043,119.851707 211.924011,121.262573 
	C212.074356,133.758453 211.850494,146.259659 212.070297,158.753433 
	C212.136322,162.507324 212.839737,166.372696 213.977951,169.956161 
	C215.673981,175.295700 220.169968,177.893005 225.513504,177.383331 
	C231.263138,176.834915 234.818069,174.001495 235.022003,167.758301 
	C235.489044,153.460098 235.213913,139.137619 235.238525,124.824997 
	C235.242813,122.335129 235.239151,119.845245 235.239151,116.653000 
	C240.414795,119.203331 238.711166,122.754204 239.050812,126.141602 
z"/>
<path fill="white" opacity="1.000000" stroke="none" 
	d="
M359.166534,132.731415 
	C362.570770,148.634338 365.889038,164.135010 369.207336,179.635666 
	C368.791656,179.840607 368.376007,180.045547 367.960358,180.250488 
	C367.227386,179.122833 366.186493,178.087997 365.813843,176.851746 
	C364.041718,170.973206 362.340912,165.067596 360.846924,159.113373 
	C360.181030,156.459625 359.059814,155.370316 356.132050,155.297470 
	C344.346222,155.004135 344.337067,154.885361 342.028442,166.333984 
	C341.240448,170.241852 340.688049,174.206741 339.681000,178.054764 
	C339.401184,179.124008 337.878204,179.867935 336.925537,180.761124 
	C336.548828,179.644028 335.659027,178.416977 335.871368,177.426102 
	C339.835358,158.927551 343.888489,140.447632 348.055084,121.993660 
	C348.531830,119.882210 349.797180,117.948814 351.049957,115.141777 
	C356.580231,120.359962 357.231598,126.630798 359.166534,132.731415 
M353.736328,126.900879 
	C353.115845,125.844337 352.495361,124.787796 351.134369,122.470261 
	C348.899384,132.886124 346.961426,141.917633 344.981964,151.142639 
	C349.969788,151.142639 354.433716,151.142639 359.675110,151.142639 
	C357.652039,142.763809 355.826447,135.202942 353.736328,126.900879 
z"/>
<path fill="white" opacity="1.000000" stroke="none" 
	d="
M444.726746,120.425217 
	C448.261749,134.804489 451.612976,148.851120 454.996948,162.889877 
	C456.087494,167.414337 457.304443,171.908539 458.372620,176.438034 
	C458.634247,177.547516 458.538055,178.741364 458.606323,179.896439 
	C458.109528,180.040817 457.612732,180.185211 457.115936,180.329590 
	C456.433563,179.063843 455.510834,177.869415 455.110352,176.520004 
	C453.360870,170.625870 451.933441,164.629761 449.986206,158.805389 
	C449.518250,157.405685 447.524170,156.500931 446.188202,155.422791 
	C445.982452,155.256775 445.539856,155.386398 445.206879,155.375656 
	C434.104248,155.018066 434.084290,155.013565 431.684357,165.839798 
	C430.784912,169.897247 430.143219,174.018311 429.071075,178.026672 
	C428.786957,179.088913 427.342041,179.840652 426.430084,180.734955 
	C426.018341,179.621536 425.070557,178.397232 425.274567,177.411194 
	C428.775330,160.490067 432.396515,143.593643 436.057861,126.706215 
	C436.513458,124.604805 437.173157,122.505928 438.062561,120.553581 
	C438.762756,119.016479 439.962616,117.706970 440.940521,116.296364 
	C442.145599,117.560753 443.350677,118.825142 444.726746,120.425217 
M445.034882,132.596817 
	C443.967468,129.536301 442.900024,126.475792 441.832611,123.415276 
	C441.383789,123.405586 440.934967,123.395897 440.486176,123.386208 
	C438.497559,132.625290 436.508942,141.864365 434.331665,151.979889 
	C439.713318,151.696869 444.053406,151.468613 448.864532,151.215607 
	C447.528809,144.711517 446.366486,139.051819 445.034882,132.596817 
z"/>
<path fill="#C0AF9A" opacity="1.000000" stroke="none" 
	d="
M130.385223,289.943298 
	C134.257294,289.944763 137.749115,289.757477 141.227768,289.897583 
	C145.517517,290.070435 147.916718,292.502350 148.259201,296.767120 
	C148.417816,298.742279 148.430435,300.765259 148.193649,302.728516 
	C147.709091,306.746490 145.857788,309.625580 141.324387,309.724792 
	C135.529343,309.851654 129.733276,309.931732 123.467903,310.015320 
	C118.111961,307.717834 117.157120,303.697205 118.306122,298.928131 
	C119.453949,294.163971 124.613312,290.290894 130.385223,289.943298 
z"/>
<path fill="white" opacity="1.000000" stroke="none" 
	d="
M121.591690,56.079079 
	C130.607574,60.256943 131.341400,66.219666 124.054977,72.980240 
	C129.859863,76.863327 131.415436,79.938354 130.150955,85.030693 
	C129.024078,89.568855 124.907356,92.537460 118.670868,92.909805 
	C114.717285,93.145866 110.738152,92.953918 106.457626,92.953918 
	C106.457626,80.440117 106.457626,68.210854 106.457626,55.040783 
	C111.427795,55.362789 116.312973,55.679287 121.591690,56.079079 
M119.817329,88.857918 
	C124.763481,86.839729 126.300774,84.180443 125.040337,79.822845 
	C123.844681,75.689171 118.531914,74.195297 111.294373,75.960022 
	C111.294373,80.207191 111.294373,84.454353 111.294373,88.952087 
	C114.031219,88.952087 116.492294,88.952087 119.817329,88.857918 
M120.624611,70.754593 
	C123.952797,68.906128 125.002708,65.841949 123.378899,62.739693 
	C120.755959,57.728626 115.827332,59.378136 111.265579,59.278107 
	C111.265579,63.330444 111.265579,67.060982 111.265579,70.976707 
	C114.252365,70.976707 117.023514,70.976707 120.624611,70.754593 
z"/>
<path fill="white" opacity="1.000000" stroke="none" 
	d="
M267.801453,58.004646 
	C274.474579,63.837814 276.544861,75.836853 272.646271,84.359093 
	C269.252014,91.778885 261.889648,94.364998 249.076447,92.520309 
	C249.076447,80.339386 249.076447,68.122543 249.076447,55.387638 
	C255.429733,55.133987 261.638092,54.694225 267.801453,58.004646 
M268.695435,67.408409 
	C265.914246,60.339520 262.556488,58.536972 254.025177,59.717262 
	C254.025177,69.374802 254.025177,79.068665 254.025177,88.728180 
	C264.328735,89.710541 268.743652,86.008316 269.136444,76.211952 
	C269.242737,73.561996 268.975189,70.897049 268.695435,67.408409 
z"/>
<path fill="white" opacity="1.000000" stroke="none" 
	d="
M92.801117,61.354431 
	C96.309334,69.207634 96.378822,76.910202 93.829964,84.584755 
	C91.848961,90.549522 87.150520,93.797241 81.474823,93.725761 
	C75.765976,93.653870 70.570786,90.438881 69.475777,84.312355 
	C68.363747,78.090584 68.426102,71.462662 69.196342,65.162018 
	C69.826653,60.006035 73.379097,56.036171 78.954201,55.057289 
	C84.708199,54.046997 89.495621,55.758949 92.801117,61.354431 
M74.153419,83.963867 
	C75.673218,87.809471 78.356499,89.826950 82.628471,89.428917 
	C87.096863,89.012581 89.288208,85.861389 89.548103,82.102654 
	C89.944191,76.374191 89.731445,70.533150 89.054543,64.825630 
	C88.599709,60.990616 85.706970,58.895847 81.589287,58.887436 
	C77.404190,58.878887 74.572403,61.238274 74.193199,64.937469 
	C73.575935,70.959061 73.979797,77.085327 74.153419,83.963867 
z"/>
<path fill="white" opacity="1.000000" stroke="none" 
	d="
M281.648102,91.362320 
	C285.237305,80.246185 288.723419,69.504341 292.134277,58.738655 
	C292.845551,56.493660 293.787720,54.407116 296.501251,55.330048 
	C298.032623,55.850895 299.932281,57.188534 300.415894,58.589710 
	C304.260101,69.728058 307.804199,80.969971 311.483551,92.313004 
	C307.814148,94.036148 306.309082,92.653740 305.359924,89.281738 
	C304.784943,87.239113 303.534088,83.998627 302.221802,83.807854 
	C298.022949,83.197449 293.524597,83.210083 289.422638,84.175415 
	C288.048157,84.498878 287.491577,88.395500 286.606445,90.676445 
	C285.439758,93.682922 283.796021,94.191116 281.648102,91.362320 
M298.641754,67.002991 
	C297.964691,64.962715 297.287659,62.922440 296.196442,59.634163 
	C294.017487,66.836929 292.225250,72.761375 290.322937,79.049706 
	C294.631470,79.049706 298.195435,79.049706 302.215820,79.049706 
	C301.024170,75.015533 299.951263,71.383324 298.641754,67.002991 
z"/>
<path fill="#C1B19D" opacity="1.000000" stroke="none" 
	d="
M333.387848,238.007324 
	C329.129181,231.191879 327.011780,223.926056 328.364594,215.580139 
	C332.722717,213.764023 336.666351,212.326477 340.609985,210.888916 
	C342.035461,215.235519 344.072357,219.499405 344.675262,223.957260 
	C345.089539,227.020248 343.822266,230.460144 342.750732,233.538071 
	C341.295105,237.719330 338.244080,239.520844 333.387848,238.007324 
z"/>
<path fill="#292627" opacity="1.000000" stroke="none" 
	d="
M319.259064,213.164032 
	C320.152832,213.849640 320.691803,214.451569 321.194824,215.082184 
	C325.834595,220.898956 325.087616,224.109467 318.167480,227.534943 
	C314.128510,229.307602 310.229645,230.653717 306.473785,232.321747 
	C301.768982,234.411194 298.148621,233.653915 296.841370,229.611679 
	C295.221680,224.603302 299.005188,223.570480 302.600250,222.539597 
	C307.313416,221.188080 312.010681,219.781097 316.698120,217.210770 
	C311.243530,217.210770 305.788971,217.210770 300.334381,217.210770 
	C300.261963,216.459412 300.189514,215.708069 300.117096,214.956711 
	C306.074463,212.637589 312.384125,212.316116 319.259064,213.164032 
z"/>
<path fill="white" opacity="1.000000" stroke="none" 
	d="
M142.944611,55.625046 
	C149.102112,55.318233 154.917404,55.133568 160.721680,55.310509 
	C161.964401,55.348392 163.167175,56.696861 164.388351,57.441574 
	C164.157578,57.933220 163.926804,58.424866 163.696014,58.916512 
	C161.271332,59.060966 158.846634,59.205421 156.070129,59.370838 
	C156.070129,69.207336 156.070129,78.883469 156.070129,88.539032 
	C163.613678,89.689880 163.613678,89.689880 163.482147,92.819397 
	C156.571609,92.819397 149.654755,92.819397 142.745132,92.819397 
	C142.653778,89.709518 142.653778,89.709518 150.434464,88.551964 
	C150.434464,79.040276 150.434464,69.484741 150.434464,60.564182 
	C148.697968,56.762714 142.292679,62.716171 142.944611,55.625046 
z"/>
<path fill="white" opacity="1.000000" stroke="none" 
	d="
M213.997406,58.038406 
	C214.712372,56.804390 215.471130,55.374352 216.281754,55.344326 
	C221.763168,55.141251 227.261307,55.103706 232.739532,55.343456 
	C233.815567,55.390545 234.828522,56.879341 235.870560,57.703213 
	C235.576187,58.121094 235.281815,58.538975 234.987427,58.956856 
	C232.552185,59.070801 230.116928,59.184746 227.372086,59.313179 
	C227.372086,69.159981 227.372086,78.872269 227.372086,88.570053 
	C234.978638,89.733589 234.978638,89.733589 235.008957,92.785599 
	C228.101608,92.785599 221.195938,92.785599 214.287750,92.785599 
	C214.317352,89.370865 214.317352,89.370865 221.760406,88.823494 
	C221.760406,79.146439 221.760406,69.437614 221.760406,59.571049 
	C219.161865,59.206032 216.613525,58.848068 213.997406,58.038406 
z"/>
<path fill="white" opacity="1.000000" stroke="none" 
	d="
M184.801483,59.353111 
	C184.801727,69.271820 184.801727,78.730835 184.801727,88.753670 
	C190.596817,88.753670 196.000061,88.753670 201.403320,88.753670 
	C201.659775,89.332344 201.916229,89.911026 202.172684,90.489700 
	C200.829742,91.334930 199.518143,92.844643 198.138428,92.909721 
	C192.335678,93.183388 186.512573,93.025391 180.308075,93.025391 
	C180.308075,80.507370 180.308075,68.155205 180.308075,55.586124 
	C183.290588,54.745403 185.178940,55.192039 184.801483,59.353111 
z"/>
<path fill="#373D49" opacity="1.000000" stroke="none" 
	d="
M340.835388,210.591141 
	C336.666351,212.326477 332.722717,213.764023 328.398041,215.120407 
	C327.983765,212.559708 327.950562,210.080170 327.703979,207.268372 
	C328.748505,205.939789 329.897705,204.326355 331.287933,204.081436 
	C333.823425,203.634796 336.543945,203.726105 339.105713,204.121338 
	C340.812225,204.384628 342.377350,205.564041 344.005737,206.333405 
	C343.024078,207.653381 342.042419,208.973373 340.835388,210.591141 
z"/>
<path fill="#BDBDBD" opacity="1.000000" stroke="none" 
	d="
M213.006317,413.004974 
	C208.697968,413.001862 204.802612,413.466675 201.112549,412.798248 
	C199.267212,412.463989 197.796600,410.060974 196.156494,408.593597 
	C197.830276,407.351471 199.463547,405.105072 201.184601,405.035675 
	C210.116592,404.675476 219.079422,404.672821 228.009796,405.054047 
	C229.626816,405.123077 231.142746,407.559967 232.705322,408.903717 
	C231.109543,410.266937 229.626465,412.606384 227.896393,412.806122 
	C223.154495,413.353455 218.308731,413.001129 213.006317,413.004974 
z"/>
<path fill="#BDBDBD" opacity="1.000000" stroke="none" 
	d="
M272.871521,412.834839 
	C271.541626,411.047668 270.619537,409.356262 269.697449,407.664886 
	C271.433167,406.730194 273.143799,405.047363 274.908905,404.988098 
	C283.352112,404.704712 291.810181,404.886871 300.262726,404.847748 
	C303.206268,404.834137 305.888947,405.470184 305.816528,408.951050 
	C305.745667,412.359161 303.052673,413.028748 300.126770,413.012512 
	C291.177734,412.962830 282.228485,412.954834 272.871521,412.834839 
z"/>
<path fill="#BDBDBD" opacity="1.000000" stroke="none" 
	d="
M378.677002,410.560150 
	C376.727264,411.621307 374.978271,412.862274 373.197815,412.909180 
	C365.056030,413.123779 356.905365,412.987152 348.758026,413.012238 
	C345.654114,413.021790 342.826172,412.474243 342.925720,408.607849 
	C343.022064,404.865204 345.964691,404.851501 348.736877,404.855530 
	C357.050568,404.867615 365.364288,404.868683 373.677979,404.860565 
	C377.252502,404.857056 379.551422,406.062042 378.677002,410.560150 
z"/>
<path fill="#BDBDBD" opacity="1.000000" stroke="none" 
	d="
M141.000229,413.004974 
	C136.520462,413.003845 132.538223,412.992920 128.556076,413.004761 
	C125.604774,413.013519 122.682396,412.160919 123.275963,408.798492 
	C123.551537,407.237457 126.519409,405.124329 128.348724,405.040039 
	C136.958542,404.643311 145.596786,404.870880 154.224869,404.858917 
	C157.041275,404.855011 159.759857,405.774261 158.966156,408.913788 
	C158.541824,410.592255 155.824814,412.538269 153.915421,412.819000 
	C149.854874,413.415985 145.645920,413.003601 141.000229,413.004974 
z"/>
<path fill="transparent" opacity="1.000000" stroke="none" 
	d="
M350.508179,375.040100 
	C349.704742,375.404419 348.482483,375.968384 347.259766,375.969330 
	C293.393005,376.012024 239.526184,376.005890 185.659378,375.994202 
	C185.002701,375.994049 184.346054,375.845184 183.411713,375.466064 
	C202.444458,376.930603 221.911774,355.256714 217.038147,330.784637 
	C219.827011,333.150604 222.658386,334.953705 224.611755,337.445160 
	C225.700317,338.833557 225.548004,341.365784 225.563217,343.385437 
	C225.587006,346.550659 226.409729,348.085602 230.117477,348.065918 
	C253.216461,347.943451 276.316772,348.082611 299.416656,348.111755 
	C303.104767,348.116394 306.519501,347.837708 309.322998,344.581909 
	C310.293213,343.455200 313.240753,344.031189 315.729675,343.899963 
	C317.375885,357.301208 329.967773,373.462677 347.104034,374.794952 
	C348.097809,374.872253 349.094086,374.917114 350.508179,375.040100 
z"/>
<path fill="#C0AF9A" opacity="1.000000" stroke="none" 
	d="
M189.755096,332.213074 
	C193.531891,336.832336 193.648438,341.919861 191.470047,346.458740 
	C189.609924,350.334473 185.895859,352.856873 181.028214,352.916290 
	C175.782654,352.980255 170.936874,349.898499 169.027847,344.928833 
	C167.081238,339.861298 168.629089,334.095703 172.885986,330.557770 
	C176.864105,327.251526 182.693268,327.028778 187.231613,330.046570 
	C188.056381,330.595032 188.792191,331.277252 189.755096,332.213074 
z"/>
<path fill="#C0AF9A" opacity="1.000000" stroke="none" 
	d="
M362.336487,348.026825 
	C358.582153,352.771332 353.743591,354.048340 348.733490,352.543335 
	C343.931976,351.100983 340.454651,347.488281 339.984253,342.124176 
	C339.539032,337.046844 341.134583,332.654907 345.637299,329.695679 
	C350.060425,326.788818 356.261139,327.277283 360.407959,330.985107 
	C364.338867,334.499817 365.960541,340.161804 362.336487,348.026825 
z"/>
<path fill="#D8D8D8" opacity="1.000000" stroke="none" 
	d="
M125.747269,225.020386 
	C123.097763,224.663788 119.306107,224.817917 118.969681,223.814072 
	C117.990883,220.893539 118.275536,217.505112 118.389427,214.311768 
	C118.406120,213.843704 120.182938,213.085999 121.159378,213.063217 
	C126.460159,212.939499 131.765366,213.004471 137.542618,213.004471 
	C137.542618,217.052353 137.542618,220.733978 137.542618,225.002106 
	C133.616760,225.002106 129.900177,225.002106 125.747269,225.020386 
z"/>
<path fill="transparent" opacity="1.000000" stroke="none" 
	d="
M408.493683,145.714264 
	C408.231934,145.691284 408.184509,145.478668 408.137054,145.266068 
	C408.327362,145.352264 408.517670,145.438461 408.493683,145.714264 
z"/>
<path fill="transparent" opacity="1.000000" stroke="none" 
	d="
M320.014221,153.263702 
	C320.648682,158.866135 321.512024,164.099014 321.492798,169.328644 
	C321.474640,174.265442 318.162872,176.529831 313.354980,176.932983 
	C301.730988,177.907684 301.381378,177.653229 301.213684,166.204956 
	C301.148041,161.722198 301.254974,157.235474 301.115326,152.755783 
	C301.029297,149.996094 302.127106,148.686630 304.892548,148.958572 
	C310.087891,149.469467 316.104156,146.891571 320.014221,153.263702 
z"/>
<path fill="transparent" opacity="1.000000" stroke="none" 
	d="
M309.847137,145.142487 
	C306.749329,145.137573 304.124969,145.137573 301.180725,145.137573 
	C301.180725,136.793167 301.180725,128.741821 301.180725,119.567375 
	C305.619232,119.825027 310.161469,119.373207 314.206390,120.583504 
	C316.759552,121.347450 319.749603,124.274673 320.436798,126.803986 
	C321.473541,130.619568 321.261841,135.049072 320.500397,139.009964 
	C319.518280,144.118652 316.550232,145.514511 309.847137,145.142487 
z"/>
<path fill="transparent" opacity="1.000000" stroke="none" 
	d="
M257.344910,136.706390 
	C257.351929,132.069839 257.216705,127.895340 257.485748,123.747063 
	C257.556549,122.655296 258.704529,120.937004 259.651428,120.705109 
	C270.274506,118.103615 276.534119,122.984390 276.876862,133.908157 
	C276.887299,134.241165 276.888092,134.574448 276.895447,134.907562 
	C277.234100,150.263596 273.748779,153.312378 257.983917,150.783630 
	C257.778351,146.344955 257.566071,141.761597 257.344910,136.706390 
z"/>
<path fill="transparent" opacity="1.000000" stroke="none" 
	d="
M353.868591,127.271469 
	C355.826447,135.202942 357.652039,142.763809 359.675110,151.142639 
	C354.433716,151.142639 349.969788,151.142639 344.981964,151.142639 
	C346.961426,141.917633 348.899384,132.886124 351.134369,122.470261 
	C352.495361,124.787796 353.115845,125.844337 353.868591,127.271469 
z"/>
<path fill="transparent" opacity="1.000000" stroke="none" 
	d="
M445.119507,132.994476 
	C446.366486,139.051819 447.528809,144.711517 448.864532,151.215607 
	C444.053406,151.468613 439.713318,151.696869 434.331665,151.979889 
	C436.508942,141.864365 438.497559,132.625290 440.486176,123.386208 
	C440.934967,123.395897 441.383789,123.405586 441.832611,123.415276 
	C442.900024,126.475792 443.967468,129.536301 445.119507,132.994476 
z"/>
<path fill="transparent" opacity="1.000000" stroke="none" 
	d="
M119.385345,88.904999 
	C116.492294,88.952087 114.031219,88.952087 111.294373,88.952087 
	C111.294373,84.454353 111.294373,80.207191 111.293015,75.958466 
	C118.531914,74.195297 123.844681,75.689171 125.040337,79.822845 
	C126.300774,84.180443 124.763481,86.839729 119.385345,88.904999 
z"/>
<path fill="transparent" opacity="1.000000" stroke="none" 
	d="
M120.209641,70.865646 
	C117.023514,70.976707 114.252365,70.976707 111.265579,70.976707 
	C111.265579,67.060982 111.265579,63.330444 111.265579,59.278107 
	C115.827332,59.378136 120.755959,57.728626 123.378899,62.739693 
	C125.002708,65.841949 123.952797,68.906128 120.209641,70.865646 
z"/>
<path fill="transparent" opacity="1.000000" stroke="none" 
	d="
M268.787323,67.823700 
	C268.975189,70.897049 269.242737,73.561996 269.136444,76.211952 
	C268.743652,86.008316 264.328735,89.710541 254.025177,88.728180 
	C254.025177,79.068665 254.025177,69.374802 254.025177,59.717262 
	C262.556488,58.536972 265.914246,60.339520 268.787323,67.823700 
z"/>
<path fill="transparent" opacity="1.000000" stroke="none" 
	d="
M74.053070,83.565643 
	C73.979797,77.085327 73.575935,70.959061 74.193199,64.937469 
	C74.572403,61.238274 77.404190,58.878887 81.589287,58.887436 
	C85.706970,58.895847 88.599709,60.990616 89.054543,64.825630 
	C89.731445,70.533150 89.944191,76.374191 89.548103,82.102654 
	C89.288208,85.861389 87.096863,89.012581 82.628471,89.428917 
	C78.356499,89.826950 75.673218,87.809471 74.053070,83.565643 
z"/>
<path fill="transparent" opacity="1.000000" stroke="none" 
	d="
M298.760071,67.377045 
	C299.951263,71.383324 301.024170,75.015533 302.215820,79.049706 
	C298.195435,79.049706 294.631470,79.049706 290.322937,79.049706 
	C292.225250,72.761375 294.017487,66.836929 296.196442,59.634163 
	C297.287659,62.922440 297.964691,64.962715 298.760071,67.377045 
z"/>
</svg>